<svg width="54" height="54" viewBox="0 0 54 54" fill="none" xmlns="http://www.w3.org/2000/svg">
<path d="M53.9976 24.6377C54.0296 25.0075 53.7346 25.3219 53.3635 25.3219H33.391C30.7881 25.3219 28.6781 23.2119 28.6781 20.609V0.63649C28.6781 0.265374 28.9925 -0.0295592 29.3623 0.0023692C42.4441 1.13203 52.868 11.5559 53.9976 24.6377Z" fill="#095290"/>
<path d="M25.3219 0.636489C25.3219 0.265372 25.0075 -0.0295592 24.6377 0.00236919C11.5559 1.13203 1.13203 11.5559 0.00236918 24.6377C-0.0295592 25.0075 0.265374 25.3219 0.63649 25.3219H20.609C23.2119 25.3219 25.3219 23.2119 25.3219 20.609V0.636489Z" fill="#095290"/>
<path d="M0.636489 28.6781C0.265372 28.6781 -0.0295592 28.9925 0.0023692 29.3623C1.13203 42.4441 11.5559 52.868 24.6377 53.9976C25.0075 54.0296 25.3219 53.7346 25.3219 53.3635V33.391C25.3219 30.7881 23.2119 28.6781 20.609 28.6781H0.636489Z" fill="#095290"/>
<path d="M28.6781 53.3635C28.6781 53.7346 28.9925 54.0296 29.3623 53.9976C42.4441 52.868 52.868 42.4441 53.9976 29.3623C54.0296 28.9925 53.7346 28.6781 53.3635 28.6781H33.391C30.7881 28.6781 28.6781 30.7881 28.6781 33.391V53.3635Z" fill="#095290"/>
<path d="M53.9976 24.6377C54.0296 25.0075 53.7346 25.3219 53.3635 25.3219H33.391C30.7881 25.3219 28.6781 23.2119 28.6781 20.609V0.63649C28.6781 0.265374 28.9925 -0.0295592 29.3623 0.0023692C42.4441 1.13203 52.868 11.5559 53.9976 24.6377Z" fill="#095290"/>
<path d="M53.9973 24.6377C54.0292 25.0075 53.7343 25.3219 53.3632 25.3219H33.3906C30.7878 25.3219 28.6777 23.2119 28.6777 20.609V0.63649C28.6777 0.265374 28.9922 -0.0295593 29.3619 0.00236918C42.4437 1.13203 52.8676 11.5559 53.9973 24.6377Z" fill="#F4B726"/>
<path d="M53.9973 24.6377C54.0292 25.0075 53.7343 25.3219 53.3632 25.3219H33.3906C30.7878 25.3219 28.6777 23.2119 28.6777 20.609V0.63649C28.6777 0.265374 28.9922 -0.0295593 29.3619 0.00236918C42.4437 1.13203 52.8676 11.5559 53.9973 24.6377Z" fill="#F4B726"/>
</svg>
