<svg width="0" height="0" class="hidden">
  <symbol fill="currentColor" xmlns="http://www.w3.org/2000/svg" viewBox="0 0 14 14" id="out">
    <path d="M13.117 1.997a1 1 0 00-1-1l-9 .001a1 1 0 100 2h8v8a1 1 0 002-.001v-9zM2.324 13.207l10.5-10.503-1.415-1.414L.91 11.792l1.415 1.415z"></path>
  </symbol>
  <symbol fill="currentColor" xmlns="http://www.w3.org/2000/svg" viewBox="0 0 33 37" id="gift">
    <path d="M28.017 12.436H24.48c1.228-1.014 2.31-2.319 2.6-3.84.216-1.594-.434-3.044-1.95-4.42-1.805-1.594-3.394-1.594-4.332-1.232-1.59.58-2.745 2.246-3.539 3.913-1.01-3.116-2.888-5.725-4.982-6.594-1.878-.725-3.755.072-5.127 2.101-1.156 1.667-1.444 3.478-1.011 5.217.505 1.957 1.95 3.623 3.25 4.783H4.91C2.166 12.364 0 14.61 0 17.29v4.13c0 .58.505 1.087 1.083 1.087H2.6v9.058C2.6 34.535 4.982 37 8.015 37h16.97a5.418 5.418 0 005.415-5.434v-9.058h1.517c.578 0 1.083-.507 1.083-1.087v-4.058c-.072-2.68-2.238-4.927-4.983-4.927zm-10.037-1.16c.29-1.448 1.517-5.651 3.394-6.303.217-.073.939-.29 2.239.797.938.87 1.372 1.666 1.227 2.463-.289 1.812-3.25 3.623-4.477 4.203H17.98v-1.16zm-9.82-4.13c-.29-1.159-.072-2.318.722-3.478 1.227-1.811 2.238-1.449 2.527-1.304 2.31.87 4.622 5.652 4.405 10.145h-2.816c-.867-.58-4.188-2.681-4.838-5.362zm-5.994 10.29a2.747 2.747 0 012.744-2.754h10.47v5.725H2.167v-2.971zm2.6 14.13v-9.058H15.38v12.318H8.015a3.242 3.242 0 01-3.25-3.26zm23.396 0a3.242 3.242 0 01-3.25 3.26h-7.365V22.508h10.615v9.058zm2.6-11.232H17.547V14.61h10.47a2.748 2.748 0 012.745 2.753v2.971z"></path>
  </symbol>
  <symbol fill="currentColor" xmlns="http://www.w3.org/2000/svg" viewBox="0 0 42 42" id="magnifier">
    <path fill-rule="evenodd" clip-rule="evenodd" d="M16.737 27.246L3.941 40.043a1.858 1.858 0 01-2.627-2.627L14.11 24.62a1.858 1.858 0 012.627 2.627z"></path>
    <path fill-rule="evenodd" clip-rule="evenodd" d="M25.73 28.16c6.92 0 12.532-5.61 12.532-12.531 0-6.922-5.611-12.533-12.533-12.533-6.921 0-12.532 5.611-12.532 12.533 0 6.92 5.611 12.532 12.532 12.532zm0 3.097c8.63 0 15.628-6.997 15.628-15.629C41.358 6.998 34.36 0 25.729 0 17.1 0 10.101 6.997 10.101 15.629c0 8.63 6.997 15.628 15.628 15.628z"></path>
  </symbol>
  <symbol fill="currentColor" xmlns="http://www.w3.org/2000/svg" viewBox="0 0 22 22" id="phone">
    <path d="M3.993 0c.235.058.474.102.703.176.774.252 1.316.781 1.712 1.476.186.326.246.696.345 1.05.208.743.412 1.487.61 2.233.16.592.088 1.168-.13 1.733a2.513 2.513 0 01-.601.907c-.297.29-.586.587-.881.878-.05.048-.062.087-.042.155a11.103 11.103 0 004.68 6.341c.881.57 1.827.994 2.827 1.307.215.068.34.029.486-.13.28-.312.576-.609.887-.889.56-.496 1.236-.701 1.974-.659.313.018.624.112.93.192.795.21 1.592.414 2.379.652.894.27 1.514.872 1.886 1.72.11.252.149.534.22.802l.022.08v.335c-.008.043-.018.085-.024.128-.062.599-.277 1.126-.708 1.555l-1.387 1.388c-.382.387-.864.553-1.388.567a15.131 15.131 0 01-1.538-.053 17.952 17.952 0 01-3.515-.634 18.355 18.355 0 01-3.027-1.152 18.525 18.525 0 01-5.525-4.106A18.546 18.546 0 01.395 7.29a18.046 18.046 0 01-.373-3.104C.018 4.05.007 3.916 0 3.782v-.455c.022-.075.046-.15.067-.227.11-.395.27-.756.583-1.047.437-.407.85-.84 1.268-1.267A2.362 2.362 0 013.03.12c.198-.051.403-.08.605-.12h.358z"></path>
  </symbol>
</svg>