<svg width="406" height="34" viewBox="0 0 406 34" fill="none" xmlns="http://www.w3.org/2000/svg">
<path d="M109.065 0H144.278V33.2925H109.065V0Z" fill="#F7955B"/>
<path d="M120.178 26.441H122.86V7.4082H120.178V26.441Z" fill="white"/>
<path d="M144.703 7.4082H142.021V21.8424L128.353 7.4082H125.67V26.441H128.353V11.879L142.021 26.441H144.703V7.4082Z" fill="white"/>
<path d="M166.035 15.5833C166.031 16.2935 165.747 16.9734 165.245 17.4756C164.743 17.9778 164.063 18.2617 163.353 18.2658H152.495V10.0907H163.353C164.063 10.0948 164.743 10.3787 165.245 10.8809C165.747 11.383 166.031 12.063 166.035 12.7732V15.5833ZM168.718 12.9009C168.685 11.4542 168.096 10.0757 167.073 9.05253C166.05 8.02933 164.672 7.44033 163.225 7.4082H149.685V26.441H152.367V20.9483H163.225C164.678 20.9376 166.069 20.3555 167.097 19.3277C168.125 18.2999 168.707 16.9091 168.718 15.4556L168.718 12.9009Z" fill="#231F20"/>
<path d="M186.984 21.076C186.98 21.7862 186.696 22.4661 186.194 22.9683C185.692 23.4705 185.012 23.7544 184.302 23.7585H176.126C175.416 23.7544 174.736 23.4705 174.234 22.9683C173.732 22.4661 173.448 21.7862 173.444 21.076V12.9009C173.448 12.1907 173.732 11.5108 174.234 11.0086C174.736 10.5065 175.416 10.2225 176.126 10.2184H184.302C185.012 10.2225 185.692 10.5064 186.194 11.0086C186.696 11.5108 186.98 12.1907 186.984 12.9009V21.076ZM189.794 12.9009C189.762 11.4543 189.173 10.0759 188.15 9.05281C187.126 8.02967 185.748 7.44058 184.302 7.4082H176.126C174.673 7.4189 173.282 8.00102 172.254 9.02879C171.227 10.0566 170.644 11.4474 170.634 12.9009V21.076C170.628 21.7988 170.767 22.5155 171.041 23.1844C171.315 23.8532 171.719 24.4609 172.23 24.972C172.742 25.4831 173.349 25.8875 174.018 26.1616C174.687 26.4357 175.404 26.5741 176.126 26.5687H184.302C185.755 26.558 187.146 25.9759 188.174 24.9481C189.201 23.9203 189.784 22.5295 189.794 21.076V12.9009Z" fill="#231F20"/>
<path d="M208.189 21.076C208.184 21.7862 207.901 22.4661 207.398 22.9683C206.896 23.4705 206.216 23.7544 205.506 23.7585H197.331C196.621 23.7544 195.941 23.4705 195.439 22.9683C194.937 22.4661 194.653 21.7862 194.648 21.076V12.9009C194.653 12.1907 194.937 11.5108 195.439 11.0086C195.941 10.5064 196.621 10.2225 197.331 10.2184H205.506C206.216 10.2225 206.896 10.5064 207.398 11.0086C207.901 11.5108 208.184 12.1907 208.189 12.9009L208.189 21.076ZM210.999 12.9009C210.966 11.4543 210.377 10.076 209.354 9.05283C208.331 8.02969 206.953 7.44059 205.506 7.4082H197.331C195.878 7.41889 194.487 8.00102 193.459 9.02879C192.431 10.0566 191.849 11.4474 191.838 12.9009V21.076C191.833 21.7988 191.971 22.5155 192.245 23.1844C192.519 23.8532 192.924 24.4609 193.435 24.972C193.946 25.4831 194.554 25.8875 195.223 26.1616C195.891 26.4357 196.608 26.5741 197.331 26.5687H205.506C206.96 26.558 208.35 25.9759 209.378 24.9481C210.406 23.9203 210.988 22.5295 210.999 21.076L210.999 12.9009Z" fill="#231F20"/>
<path d="M216.108 7.4082H213.426V26.441H232.458V23.7585H216.108V7.4082Z" fill="#231F20"/>
<path d="M269.379 21.1436C269.379 24.6244 267.558 26.4453 262.632 26.4453H254.492C249.511 26.4453 247.637 24.571 247.637 19.805V14.4495C247.637 9.5227 249.511 7.64844 254.492 7.64844H262.632C267.13 7.64844 269.379 9.36212 269.379 12.9501H267.452C267.452 10.8616 266.354 9.52271 262.659 9.52271H254.519C250.743 9.52271 249.565 10.6473 249.565 14.4495V19.805C249.565 23.4997 250.823 24.571 254.519 24.571H262.659C266.193 24.571 267.452 23.4997 267.452 21.1436H269.379Z" fill="#231F20"/>
<path d="M287.37 26.4448H279.23C274.197 26.4448 272.322 24.8383 272.322 20.0719V14.2885C272.322 9.52225 273.982 7.64795 279.23 7.64795H287.37C291.869 7.64795 294.064 8.8796 294.064 14.2885V20.0719C294.064 25.374 292.297 26.4448 287.37 26.4448ZM287.344 9.52224H279.204C275.723 9.52224 274.25 10.513 274.25 14.1279V20.0719C274.25 23.6336 275.589 24.5705 279.204 24.5705H287.344C291.253 24.5705 292.137 23.687 292.137 20.0719V14.1279C292.137 10.4594 291.039 9.52224 287.344 9.52224Z" fill="#231F20"/>
<path d="M301.185 7.86279L315.483 24.5178V7.86279H317.411V26.4454H314.626L299.9 9.3086H298.828V26.4454H296.901V7.86284L301.185 7.86279Z" fill="#231F20"/>
<path d="M341.775 21.1431C341.775 24.6239 339.954 26.4448 335.028 26.4448H326.888C321.907 26.4448 320.033 24.5705 320.033 19.8045V14.449C320.033 9.52221 321.907 7.64795 326.888 7.64795H335.028C339.526 7.64795 341.775 9.36163 341.775 12.9496H339.848C339.848 10.8611 338.75 9.52222 335.055 9.52222H326.915C323.139 9.52222 321.961 10.6468 321.961 14.449V19.8045C321.961 23.4992 323.219 24.5705 326.915 24.5705H335.055C338.589 24.5705 339.848 23.4992 339.848 21.1431H341.775Z" fill="#231F20"/>
<path d="M344.932 7.86279H361.4V9.73706H346.86V15.8955H361.025V17.7699H346.86V24.5712H361.4V26.4454H344.932V7.86279Z" fill="#231F20"/>
<path d="M366.673 26.4454H364.745V7.86279H377.276C381.882 7.86279 383.81 9.41585 383.81 13.5928C383.81 17.7431 381.962 18.7605 377.303 18.7605H366.673V26.4454ZM366.673 16.8862H378.053C380.784 16.8862 381.882 16.2705 381.882 13.4055C381.882 10.6205 380.864 9.73701 377.866 9.73701H366.673V16.8862Z" fill="#231F20"/>
<path d="M405.496 7.86279V9.73706H396.419V26.4454H394.491V9.73706H385.468V7.86279H405.496Z" fill="#231F20"/>
<path d="M1.6224 25.4095C1.23051 25.4095 0.862142 25.2998 0.517285 25.0804C0.172428 24.8609 0 24.5787 0 24.2339C0 24.0615 0.0391883 23.8498 0.117565 23.599C0.195941 23.3639 0.26648 23.1445 0.329182 22.9407C0.830792 21.4045 1.30105 19.9702 1.73996 18.6378C2.17887 17.3054 2.61778 16.0122 3.05669 14.7582C3.49559 13.5041 3.95802 12.2501 4.44395 10.9961C4.94556 9.74206 5.50204 8.43317 6.11337 7.06942C5.51771 7.17915 4.98475 7.34374 4.51449 7.56319C4.05991 7.76697 3.69154 7.95508 3.40938 8.1275C3.12723 8.28426 2.93912 8.36263 2.84507 8.36263C2.75102 8.36263 2.6021 8.28426 2.39832 8.1275C2.21022 7.97075 2.11617 7.83751 2.11617 7.72778C2.52373 7.55535 3.00182 7.36725 3.55046 7.16347C4.11477 6.95969 4.71827 6.78726 5.36096 6.64619C6.00364 6.50511 6.65417 6.43457 7.31253 6.43457C8.00225 6.43457 8.6998 6.52862 9.40519 6.71673C10.1263 6.90483 10.7846 7.19482 11.3803 7.58671C11.9759 7.96291 12.454 8.43317 12.8146 8.99748C13.1751 9.5618 13.3554 10.2202 13.3554 10.9726C13.3554 11.7877 13.1751 12.4931 12.8146 13.0887C12.454 13.6687 11.9759 14.1625 11.3803 14.5701C10.7846 14.9619 10.1419 15.2833 9.45221 15.5341C8.7625 15.7692 8.07279 15.9573 7.38307 16.0984C6.70903 16.2238 6.10553 16.31 5.57257 16.357C5.03961 16.3884 4.64773 16.4041 4.39693 16.4041H4.1618C3.69154 18.0186 3.23695 19.6097 2.79804 21.1772C2.37481 22.7447 1.98293 24.1555 1.6224 25.4095ZM4.25585 16.0279C5.11799 15.9808 5.98797 15.8398 6.86579 15.6046C7.75928 15.3695 8.5744 15.0325 9.31114 14.5936C10.0479 14.139 10.6435 13.5825 11.0981 12.9241C11.5527 12.2501 11.78 11.4663 11.78 10.5729C11.78 9.72639 11.5762 9.03667 11.1687 8.50371C10.7768 7.97075 10.2517 7.57887 9.59329 7.32806C8.9506 7.06158 8.26089 6.92834 7.52415 6.92834C6.94416 8.07264 6.37985 9.44423 5.83122 11.0431C5.28258 12.642 4.75746 14.3036 4.25585 16.0279Z" fill="#585858"/>
<path d="M11.3138 24.469C10.8278 24.469 10.4203 24.3044 10.0911 23.9752C9.74625 23.6617 9.57382 23.1758 9.57382 22.5174C9.57382 21.9531 9.69922 21.3496 9.95003 20.7069C10.2008 20.0486 10.5457 19.4059 10.9846 18.7789C11.4235 18.1362 11.9173 17.5562 12.4659 17.0389C13.0302 16.506 13.6181 16.0827 14.2294 15.7692C14.8564 15.4557 15.4756 15.299 16.0869 15.299C16.6982 15.299 17.2077 15.4636 17.6153 15.7927C18.0228 16.1062 18.2266 16.5295 18.2266 17.0624C18.2266 17.4543 18.1169 17.7208 17.8974 17.8619C17.6936 18.003 17.4193 18.0735 17.0745 18.0735C17.1528 17.7913 17.192 17.517 17.192 17.2505C17.192 16.89 17.1058 16.5843 16.9334 16.3335C16.761 16.0671 16.4631 15.9338 16.0399 15.9338C15.601 15.9338 15.1542 16.0906 14.6996 16.4041C14.2451 16.7019 13.8062 17.1095 13.3829 17.6267C12.9597 18.1284 12.5835 18.677 12.2543 19.2727C11.9251 19.8683 11.6665 20.4561 11.4784 21.0361C11.2903 21.6161 11.1962 22.1334 11.1962 22.588C11.1962 23.1993 11.4078 23.505 11.8311 23.505C12.1916 23.505 12.5835 23.3404 13.0067 23.0112C13.4299 22.6664 13.861 22.2353 14.2999 21.718C14.7545 21.185 15.1856 20.6364 15.5931 20.0721C16.0007 19.5078 16.3612 18.9905 16.6747 18.5202C16.7374 18.4262 16.7766 18.3792 16.7923 18.3792C16.9334 18.3948 17.1215 18.4575 17.3566 18.5673C17.5917 18.6613 17.7093 18.7946 17.7093 18.967C17.7093 19.1081 17.6388 19.304 17.4977 19.5548C17.3566 19.7899 17.1999 20.0643 17.0274 20.3778C16.855 20.6913 16.6982 21.0126 16.5572 21.3418C16.4161 21.6553 16.3456 21.9531 16.3456 22.2353C16.3456 22.4704 16.4083 22.7055 16.5337 22.9407C16.6591 23.1601 16.8628 23.2699 17.145 23.2699C17.5682 23.2699 18.1247 22.9642 18.8144 22.3529C19.5041 21.7258 20.2017 20.7932 20.9071 19.5548L21.1422 19.7899C20.813 20.6364 20.3898 21.381 19.8725 22.0237C19.3552 22.6664 18.7987 23.168 18.2031 23.5285C17.6231 23.889 17.0509 24.0693 16.4866 24.0693C15.9066 24.0693 15.4756 23.8969 15.1934 23.552C14.9269 23.2072 14.7937 22.8309 14.7937 22.4234C14.7937 22.2196 14.8172 21.9923 14.8642 21.7415C14.1902 22.6507 13.571 23.3326 13.0067 23.7871C12.4581 24.2417 11.8938 24.469 11.3138 24.469Z" fill="#585858"/>
<path d="M24.4939 23.9752C23.9609 23.9752 23.5377 23.8342 23.2242 23.552C22.9264 23.2699 22.7775 22.9015 22.7775 22.4469C22.7775 21.9766 22.8872 21.4829 23.1066 20.9656C23.3261 20.4483 23.5377 19.9389 23.7415 19.4372C23.9609 18.92 24.0707 18.4575 24.0707 18.05C24.0707 17.5484 23.9218 17.18 23.6239 16.9449C23.3418 16.6941 23.0518 16.4668 22.7539 16.263C22.3934 17.1878 22.0172 18.0657 21.6253 18.8964C21.2334 19.7272 20.9121 20.3542 20.6613 20.7775L20.4497 20.3778C20.6691 19.9702 20.9513 19.3745 21.2961 18.5908C21.6567 17.807 22.0094 16.9135 22.3542 15.9103C22.1975 15.7535 22.1191 15.5654 22.1191 15.346C22.1191 14.8757 22.2523 14.4917 22.5188 14.1939C22.7853 13.896 22.9812 13.7471 23.1066 13.7471C23.2791 13.7471 23.3731 13.8255 23.3888 13.9822C23.4201 14.1233 23.4358 14.233 23.4358 14.3114C23.4358 14.3898 23.3888 14.5465 23.2947 14.7817C23.2164 15.0011 23.1772 15.1344 23.1772 15.1814C23.1772 15.4008 23.2947 15.6046 23.5299 15.7927C23.7807 15.9652 24.0628 16.1689 24.3763 16.4041C24.6898 16.6235 24.9642 16.8978 25.1993 17.227C25.4501 17.5405 25.5755 17.9481 25.5755 18.4497C25.5755 18.92 25.4736 19.3981 25.2698 19.884C25.0817 20.3699 24.8858 20.8323 24.682 21.2713C24.4939 21.7102 24.3999 22.0942 24.3999 22.4234C24.3999 22.7055 24.4704 22.8936 24.6115 22.9877C24.7525 23.0818 24.9171 23.1288 25.1052 23.1288C25.4814 23.1288 25.8655 23.0112 26.2574 22.7761C26.6649 22.541 27.0568 22.2431 27.433 21.8826C27.8092 21.5221 28.1462 21.1459 28.4441 20.754C28.7419 20.3464 28.9614 19.9702 29.1024 19.6253L29.4081 19.8605C29.1103 20.5188 28.7027 21.1694 28.1854 21.8121C27.6682 22.4391 27.0882 22.9564 26.4455 23.3639C25.8185 23.7715 25.1679 23.9752 24.4939 23.9752Z" fill="#585858"/>
<path d="M30.5992 24.4455C29.2041 24.4455 28.5065 23.6696 28.5065 22.1177C28.5065 21.428 28.6319 20.5815 28.8827 19.5783C29.1492 18.5594 29.4784 17.517 29.8703 16.4511C29.7135 16.4197 29.5646 16.3962 29.4235 16.3806C29.2825 16.3492 29.1492 16.31 29.0238 16.263V15.8398C29.1492 15.8554 29.2981 15.8711 29.4706 15.8868C29.643 15.9025 29.8389 15.9181 30.0584 15.9338C30.3876 15.0873 30.7403 14.2722 31.1165 13.4885C31.4927 12.689 31.8611 11.9836 32.2216 11.3723C32.5978 10.7453 32.9505 10.2515 33.2797 9.89098C33.6245 9.51477 33.9145 9.32667 34.1497 9.32667C34.2751 9.32667 34.3848 9.37369 34.4788 9.46774C34.5886 9.54612 34.6434 9.67152 34.6434 9.84395C34.6434 10.1104 34.4788 10.5493 34.1497 11.1607C33.8205 11.7563 33.4129 12.4696 32.927 13.3004C32.441 14.1311 31.9708 15.0325 31.5162 16.0043H32.3862C32.9035 16.0043 33.4443 15.9965 34.0086 15.9808C34.5886 15.9652 35.1685 15.926 35.7485 15.8633V16.2865C34.0399 16.4746 32.6605 16.5687 31.6103 16.5687H31.2576C30.897 17.3995 30.5914 18.2538 30.3405 19.1316C30.0897 20.0094 29.9643 20.8637 29.9643 21.6945C29.9643 22.3685 30.0662 22.8545 30.27 23.1523C30.4738 23.4344 30.8108 23.5755 31.2811 23.5755C32.0962 23.5755 32.8956 23.215 33.6794 22.4939C34.4632 21.7729 35.1529 20.7932 35.7485 19.5548L36.0542 19.7899C35.678 20.6678 35.1999 21.4594 34.6199 22.1647C34.0556 22.8701 33.4286 23.4266 32.7389 23.8342C32.0492 24.2417 31.3359 24.4455 30.5992 24.4455Z" fill="#585858"/>
<path d="M42.9002 23.8342C42.3515 23.8342 41.9361 23.6931 41.654 23.4109C41.3875 23.1288 41.2542 22.7682 41.2542 22.3293C41.2542 22.0002 41.3091 21.6553 41.4188 21.2948C41.5442 20.9342 41.6618 20.5659 41.7715 20.1897C41.8813 19.7978 41.9361 19.4216 41.9361 19.061C41.9361 18.6221 41.8421 18.3243 41.654 18.1675C41.4815 17.9951 41.2621 17.9089 40.9956 17.9089C40.5097 17.9089 40.0159 18.1127 39.5143 18.5202C39.0127 18.9121 38.5267 19.4216 38.0565 20.0486C37.5862 20.6599 37.1473 21.2948 36.7397 21.9531C36.3322 22.6115 35.9717 23.1993 35.6582 23.7166C35.4073 23.7166 35.1722 23.6696 34.9528 23.5755C34.7176 23.4971 34.5374 23.3717 34.412 23.1993C34.412 23.1209 34.4982 22.878 34.6706 22.4704C34.8274 22.0629 35.0155 21.5612 35.2349 20.9656C35.4544 20.3699 35.6503 19.7586 35.8227 19.1316C35.9952 18.5046 36.0814 17.9324 36.0814 17.4151C36.1754 17.3054 36.3244 17.1957 36.5281 17.0859C36.7319 16.9762 36.9435 16.9214 37.163 16.9214C37.5862 16.9214 37.7978 17.1251 37.7978 17.5327C37.7978 17.7835 37.7273 18.2067 37.5862 18.8024C37.4451 19.3824 37.2649 19.9937 37.0454 20.6364C37.4687 19.9937 37.9389 19.3589 38.4562 18.7319C38.9892 18.0892 39.5535 17.5562 40.1491 17.133C40.7448 16.7097 41.3405 16.4981 41.9361 16.4981C42.5475 16.4981 42.9864 16.7176 43.2528 17.1565C43.535 17.5954 43.6761 18.0813 43.6761 18.6143C43.6761 19.1002 43.5977 19.5548 43.4409 19.978C43.2842 20.3856 43.1196 20.7853 42.9472 21.1772C42.7904 21.5534 42.712 21.9375 42.712 22.3293C42.712 22.6585 42.7747 22.8937 42.9002 23.0347C43.0412 23.1601 43.2137 23.2228 43.4174 23.2228C43.8093 23.2228 44.2012 23.0426 44.5931 22.682C44.985 22.3058 45.3612 21.8356 45.7217 21.2713C46.0979 20.7069 46.4271 20.1348 46.7092 19.5548L46.9679 19.8605C46.482 21.0048 45.902 21.9531 45.2279 22.7055C44.5539 23.458 43.778 23.8342 42.9002 23.8342Z" fill="#585858"/>
<path d="M48.7977 24.3985C47.8415 24.3985 47.1204 24.132 46.6345 23.599C46.1642 23.0818 45.9291 22.4391 45.9291 21.671C45.9291 20.9656 46.1015 20.221 46.4464 19.4372C46.8069 18.6535 47.2772 17.9167 47.8572 17.227C48.4528 16.5373 49.1033 15.9808 49.8087 15.5576C50.5141 15.1187 51.2117 14.8992 51.9014 14.8992C52.2619 14.8992 52.5911 14.9933 52.8889 15.1814C53.2024 15.3695 53.3592 15.7535 53.3592 16.3335C53.3592 16.9292 53.1789 17.4935 52.8184 18.0265C52.4735 18.5438 52.0111 19.0062 51.4311 19.4137C50.8668 19.8213 50.2398 20.1583 49.5501 20.4248C48.8761 20.6756 48.202 20.8323 47.528 20.895C47.4966 21.0518 47.4731 21.2007 47.4574 21.3418C47.4418 21.4829 47.4339 21.6161 47.4339 21.7415C47.4339 22.2274 47.5593 22.682 47.8101 23.1053C48.0766 23.5128 48.5704 23.7166 49.2915 23.7166C49.9655 23.7166 50.6317 23.5285 51.2901 23.1523C51.9484 22.7604 52.5598 22.251 53.1241 21.624C53.6884 20.9969 54.1665 20.3072 54.5584 19.5548L54.8405 19.7664C54.4173 20.7069 53.8765 21.5221 53.2181 22.2118C52.5754 22.9015 51.87 23.4344 51.1019 23.8107C50.3495 24.2025 49.5814 24.3985 48.7977 24.3985ZM47.6455 20.4483C48.0688 20.3072 48.5469 20.1034 49.0798 19.837C49.6128 19.5548 50.1222 19.2256 50.6082 18.8494C51.1098 18.4732 51.5173 18.0578 51.8309 17.6032C52.16 17.1486 52.3246 16.6706 52.3246 16.1689C52.3246 15.9965 52.2933 15.8633 52.2306 15.7692C52.1679 15.6752 52.0346 15.6281 51.8309 15.6281C51.4546 15.6281 51.0549 15.7771 50.6317 16.0749C50.2085 16.357 49.8009 16.7333 49.409 17.2035C49.0171 17.6738 48.6644 18.1911 48.3509 18.7554C48.0374 19.3197 47.8023 19.884 47.6455 20.4483Z" fill="#585858"/>
<path d="M58.156 23.9752C57.6231 23.9752 57.1998 23.8342 56.8863 23.552C56.5885 23.2699 56.4396 22.9015 56.4396 22.4469C56.4396 21.9766 56.5493 21.4829 56.7688 20.9656C56.9882 20.4483 57.1998 19.9389 57.4036 19.4372C57.6231 18.92 57.7328 18.4575 57.7328 18.05C57.7328 17.5484 57.5839 17.18 57.286 16.9449C57.0039 16.6941 56.7139 16.4668 56.4161 16.263C56.0555 17.1878 55.6793 18.0657 55.2874 18.8964C54.8956 19.7272 54.5742 20.3542 54.3234 20.7775L54.1118 20.3778C54.3312 19.9702 54.6134 19.3745 54.9583 18.5908C55.3188 17.807 55.6715 16.9135 56.0163 15.9103C55.8596 15.7535 55.7812 15.5654 55.7812 15.346C55.7812 14.8757 55.9145 14.4917 56.1809 14.1939C56.4474 13.896 56.6434 13.7471 56.7688 13.7471C56.9412 13.7471 57.0352 13.8255 57.0509 13.9822C57.0823 14.1233 57.0979 14.233 57.0979 14.3114C57.0979 14.3898 57.0509 14.5465 56.9569 14.7817C56.8785 15.0011 56.8393 15.1344 56.8393 15.1814C56.8393 15.4008 56.9569 15.6046 57.192 15.7927C57.4428 15.9652 57.7249 16.1689 58.0385 16.4041C58.352 16.6235 58.6263 16.8978 58.8614 17.227C59.1122 17.5405 59.2376 17.9481 59.2376 18.4497C59.2376 18.92 59.1357 19.3981 58.932 19.884C58.7438 20.3699 58.5479 20.8323 58.3441 21.2713C58.156 21.7102 58.062 22.0942 58.062 22.4234C58.062 22.7055 58.1325 22.8936 58.2736 22.9877C58.4147 23.0818 58.5793 23.1288 58.7674 23.1288C59.1436 23.1288 59.5276 23.0112 59.9195 22.7761C60.3271 22.541 60.7189 22.2431 61.0951 21.8826C61.4714 21.5221 61.8084 21.1459 62.1062 20.754C62.404 20.3464 62.6235 19.9702 62.7646 19.6253L63.0702 19.8605C62.7724 20.5188 62.3648 21.1694 61.8476 21.8121C61.3303 22.4391 60.7503 22.9564 60.1076 23.3639C59.4806 23.7715 58.8301 23.9752 58.156 23.9752Z" fill="#585858"/>
<path d="M70.5573 25.0804C69.7422 25.0804 69.1308 24.8139 68.7233 24.2809C68.3314 23.748 68.1354 23.0269 68.1354 22.1177C68.1354 21.334 68.2687 20.4091 68.5352 19.3432C68.8016 18.2773 69.1543 17.1643 69.5932 16.0043C70.0322 14.8287 70.5181 13.6844 71.0511 12.5715C71.5997 11.4585 72.1483 10.4553 72.697 9.5618C73.2456 8.65263 73.7629 7.93156 74.2488 7.3986C74.7347 6.84997 75.1345 6.57565 75.448 6.57565C75.7145 6.57565 75.9026 6.74024 76.0123 7.06942C76.1377 7.3986 76.2004 7.72778 76.2004 8.05697C76.2004 8.49587 76.1063 9.02883 75.9182 9.65585C75.7301 10.2829 75.4637 10.9569 75.1188 11.678C74.7739 12.3834 74.3742 13.0809 73.9196 13.7706C73.465 14.4603 72.9713 15.0952 72.4383 15.6752C71.921 16.2395 71.3881 16.6862 70.8394 17.0154C70.7454 17.1878 70.6043 17.5484 70.4162 18.097C70.2438 18.63 70.0792 19.2491 69.9224 19.9545C69.7813 20.6442 69.7108 21.3183 69.7108 21.9766C69.7108 22.6193 69.8049 23.1445 69.993 23.552C70.1967 23.9752 70.5338 24.1869 71.004 24.1869C71.4586 24.1869 71.9289 23.9988 72.4148 23.6226C72.9007 23.262 73.2926 22.7918 73.5904 22.2118C73.0105 21.9139 72.5794 21.4829 72.2972 20.9186C72.0151 20.3386 71.874 19.7586 71.874 19.1786C71.874 18.4262 72.0699 17.8227 72.4618 17.3681C72.8537 16.9135 73.3161 16.6862 73.8491 16.6862C74.3037 16.6862 74.6642 16.8743 74.9307 17.2505C75.1972 17.6111 75.3304 18.144 75.3304 18.8494C75.3304 19.3667 75.2599 19.8997 75.1188 20.4483C74.9777 20.9969 74.7739 21.5299 74.5075 22.0472C74.6956 22.0942 74.8993 22.1177 75.1188 22.1177C75.6831 22.1177 76.1534 21.9845 76.5296 21.718C76.9058 21.4358 77.2193 21.0988 77.4701 20.7069C77.7366 20.2994 77.956 19.9153 78.1285 19.5548L78.4106 19.8605C77.9717 20.9421 77.4466 21.6631 76.8352 22.0237C76.2396 22.3685 75.6439 22.541 75.0483 22.541C74.7818 22.541 74.531 22.5174 74.2958 22.4704C73.8726 23.1915 73.3475 23.8028 72.7205 24.3044C72.1091 24.8217 71.3881 25.0804 70.5573 25.0804ZM71.0981 16.0984C71.537 15.7535 71.9602 15.3146 72.3678 14.7817C72.791 14.2487 73.1829 13.6844 73.5434 13.0887C73.904 12.4774 74.2253 11.8817 74.5075 11.3018C74.7896 10.7218 75.0091 10.1966 75.1658 9.72639C75.3226 9.25613 75.401 8.90343 75.401 8.6683C75.401 8.5429 75.3696 8.4802 75.3069 8.4802C75.1815 8.4802 74.9385 8.70749 74.578 9.16207C74.2331 9.60098 73.8413 10.1966 73.4023 10.9491C72.9791 11.6858 72.5559 12.5088 72.1326 13.4179C71.7094 14.3114 71.3646 15.2049 71.0981 16.0984ZM73.8256 21.7415C73.998 21.381 74.1312 21.0048 74.2253 20.6129C74.3194 20.2053 74.3664 19.7899 74.3664 19.3667C74.3664 18.8181 74.288 18.387 74.1313 18.0735C73.9902 17.76 73.8099 17.6032 73.5904 17.6032C73.3553 17.6032 73.1437 17.7678 72.9556 18.097C72.7832 18.4105 72.697 18.8102 72.697 19.2962C72.697 19.7194 72.7832 20.1661 72.9556 20.6364C73.128 21.1067 73.418 21.475 73.8256 21.7415Z" fill="#585858"/>
<path d="M78.6353 29.9475C78.2434 29.9475 77.8985 29.8378 77.6007 29.6184C77.3029 29.4146 77.154 29.1089 77.154 28.7014C77.154 28.0273 77.3656 27.4473 77.7888 26.9614C78.2277 26.4755 78.792 26.0287 79.4817 25.6212C80.1871 25.2293 80.9317 24.8374 81.7155 24.4455C81.9349 23.8655 82.1544 23.2228 82.3738 22.5174C82.609 21.7964 82.8284 21.0048 83.0322 20.1426C82.5306 20.9577 81.9898 21.6631 81.4098 22.2588C80.8455 22.8388 80.242 23.1288 79.5993 23.1288C79.1447 23.1288 78.7136 22.9799 78.3061 22.682C77.9142 22.3685 77.7183 21.8826 77.7183 21.2242C77.7183 20.7853 77.7888 20.2759 77.9299 19.6959C78.0866 19.1159 78.2747 18.5516 78.4942 18.003C78.7136 17.4543 78.9409 16.9997 79.1761 16.6392C79.4112 16.2787 79.615 16.0984 79.7874 16.0984C79.8501 16.0984 79.9598 16.1219 80.1166 16.1689C80.289 16.216 80.4458 16.2865 80.5868 16.3806C80.7436 16.4589 80.822 16.5451 80.822 16.6392C80.6809 16.843 80.5241 17.133 80.3517 17.5092C80.1793 17.8854 80.0069 18.3086 79.8344 18.7789C79.6777 19.2335 79.5444 19.6802 79.4347 20.1191C79.325 20.558 79.2701 20.9342 79.2701 21.2477C79.2701 21.5299 79.3328 21.7572 79.4582 21.9296C79.5836 22.102 79.8031 22.1883 80.1166 22.1883C80.4144 22.1883 80.7436 22.0472 81.1041 21.765C81.4803 21.4672 81.8487 21.091 82.2092 20.6364C82.5854 20.1818 82.9303 19.6959 83.2438 19.1786C83.2908 19.0062 83.33 18.8337 83.3614 18.6613C83.4084 18.4732 83.4476 18.2851 83.4789 18.097C83.526 17.8775 83.6357 17.6267 83.8081 17.3446C83.9962 17.0468 84.2862 16.8978 84.6781 16.8978C84.8192 16.8978 84.9838 16.9214 85.1719 16.9684C85.1719 17.2192 85.0935 17.6894 84.9367 18.3792C84.7957 19.0532 84.5841 19.8448 84.3019 20.754C84.0354 21.6631 83.7141 22.5958 83.3379 23.552C84.0746 23.2699 84.7957 22.8074 85.5011 22.1647C86.2064 21.5064 86.7786 20.6364 87.2175 19.5548L87.5232 19.7899C87.288 20.5424 86.9275 21.2007 86.4416 21.765C85.9713 22.3137 85.4384 22.7918 84.8427 23.1993C84.247 23.5912 83.6592 23.9204 83.0792 24.1869C82.6717 25.1901 82.2249 26.1306 81.739 27.0084C81.2687 27.8862 80.7671 28.5916 80.2342 29.1246C79.7169 29.6732 79.1839 29.9475 78.6353 29.9475ZM78.5177 29.1951C78.7528 29.1951 79.1447 28.8816 79.6934 28.2546C80.2577 27.6433 80.8533 26.5617 81.4803 25.0098C80.8376 25.3547 80.242 25.6917 79.6934 26.0209C79.1447 26.3657 78.7058 26.7341 78.3766 27.126C78.0474 27.5179 77.8829 27.9725 77.8829 28.4897C77.8829 28.6151 77.9299 28.7641 78.0239 28.9365C78.118 29.1089 78.2826 29.1951 78.5177 29.1951Z" fill="#585858"/>
</svg>
