<svg width="232" height="55" viewBox="0 0 232 55" fill="none" xmlns="http://www.w3.org/2000/svg">
<path d="M26.7636 54.9987C12.1325 55.0983 -0.0964816 42.5886 0.000573769 27.3377C0.0976292 12.2612 12.1325 -0.0990806 26.9577 0.000598701C42.1711 0.100278 53.745 12.9838 53.6237 27.7364C53.5024 42.7381 41.3947 55.1482 26.7636 54.9987ZM40.23 49.0428C40.6183 49.0428 40.7881 48.8185 40.9822 48.6939C42.8263 47.3981 44.4762 45.9029 45.9078 44.1336C50.9061 37.9286 52.7987 30.8015 51.4157 22.9019C49.1591 9.94361 37.2213 0.249797 23.488 2.11878C10.2157 3.88809 0.146157 16.4726 2.01447 30.8513C3.10635 39.2743 7.40105 45.6537 14.5589 49.8901C17.5191 51.6345 20.6491 52.9054 24.2159 52.5565C33.9214 51.6594 40.2058 41.2429 36.5905 31.9727C35.3773 28.8578 33.6545 25.992 31.8833 23.201C29.0444 18.7154 25.9386 14.4043 22.7115 10.1928C22.3233 9.69441 22.2748 9.32061 22.6873 8.7973C24.1916 6.80371 25.6717 4.81013 27.1276 2.79162C27.54 2.21846 27.7827 2.34306 28.1709 2.84146C32.0289 7.9251 35.717 13.1084 39.1139 18.4911C41.1763 21.7805 43.166 25.1198 44.5005 28.8079C46.5629 34.4149 46.1261 39.8225 43.2387 45.0307C42.438 46.4761 41.3704 47.747 40.23 49.0428Z" fill="url(#paint0_linear)"/>
<path d="M7.06264 36.7337C6.96559 34.5407 7.71777 32.4973 8.66406 30.5037C10.6052 26.392 13.0801 22.6041 15.5793 18.8413C16.3072 17.7448 17.0836 16.6483 17.8115 15.5518C18.0784 15.1531 18.3211 15.0534 18.6608 15.4771C22.5915 20.6355 26.6921 25.6942 29.4096 31.6999C30.55 34.2168 30.8412 36.8832 30.2104 39.6244C28.9001 45.3061 23.8775 49.1188 17.9814 48.8696C12.7404 48.6454 8.05746 44.2844 7.18396 38.802C7.08691 38.1292 7.06264 37.4813 7.06264 36.7337ZM18.8306 28.6098C14.0264 28.5849 10.2412 32.4226 10.2169 37.3068C10.2169 42.241 13.9293 46.1035 18.685 46.1285C23.4893 46.1534 27.323 42.3157 27.3715 37.4065C27.4443 32.597 23.5621 28.6098 18.8306 28.6098Z" fill="url(#paint1_linear)"/>
<path d="M14.7051 48.9197C15.7727 49.2187 16.6947 49.4181 17.6653 49.5427C25.4782 50.39 32.2478 43.1134 31.0832 35.164C30.6707 32.2982 29.3847 29.8311 27.9531 27.4388C25.3812 23.1277 22.3482 19.1156 19.2424 15.1783C18.7814 14.6051 18.7086 14.1815 19.1696 13.5834C19.8248 12.761 20.3828 11.839 21.0137 10.9917C21.7416 9.99494 21.7659 9.99494 22.4695 10.9419C25.3084 14.7297 28.0987 18.5923 30.6707 22.5795C32.4905 25.3954 34.1889 28.2612 35.5963 31.3263C39.5998 40.0233 34.2132 50.3651 24.9444 51.7855C21.596 52.3088 18.466 51.6609 15.6028 49.767C15.3117 49.5676 14.9477 49.4181 14.7051 48.9197Z" fill="url(#paint2_linear)"/>
<path d="M16.2596 32.8457C17.1331 32.8457 17.8367 33.5435 17.9095 34.4655C17.9338 34.8144 17.9338 35.1383 18.2007 35.4374C18.9771 36.3594 18.9771 36.3345 19.8749 35.537C20.5785 34.914 20.991 34.0668 21.5733 33.369C22.0101 32.8208 22.3255 33.0451 22.7137 33.4438C23.1262 33.8425 23.2475 34.1914 22.738 34.5403C21.8645 35.1383 20.991 35.7613 20.2631 36.5837C19.8991 37.0073 19.8749 37.2565 20.2874 37.6303C20.9425 38.2035 21.452 38.976 22.374 39.2501C23.0049 39.4245 23.2718 40.0475 23.1262 40.7453C23.0049 41.4181 22.5682 41.8418 21.913 41.9165C21.2579 41.9664 20.6756 41.6922 20.5057 41.0194C20.2874 40.1721 19.6322 39.7236 19.1227 39.1255C18.88 38.8514 18.6374 38.8265 18.4676 39.2252C17.9823 40.2718 17.036 40.9197 16.2596 41.6922C15.7985 42.1408 15.3375 41.8418 14.9736 41.443C14.5853 41.0443 14.1729 40.5708 14.6339 40.0724C15.3861 39.2501 15.9927 38.2284 17.1088 37.8297C17.4485 37.7051 17.4727 37.4559 17.2301 37.2067C16.8904 36.8329 16.6235 36.484 15.9927 36.5089C14.9978 36.5588 14.3427 35.7115 14.4398 34.7147C14.464 34.5403 14.464 34.316 14.6339 34.2163C14.828 34.1166 14.9736 34.2911 15.0949 34.4157C15.289 34.5901 15.4588 34.7894 15.653 34.9639C15.8713 35.1632 16.114 35.2131 16.3566 34.9639C16.575 34.7396 16.5992 34.4904 16.4051 34.2412C16.2596 34.0419 16.0897 33.8923 15.9441 33.7179C15.7985 33.5435 15.5074 33.4189 15.653 33.1198C15.7743 32.8457 16.0412 32.8706 16.2596 32.8457Z" fill="url(#paint3_linear)"/>
<path d="M90.855 2.74533V17.1995H82.4403V2.74533H79.5757V19.8612H93.3257V23.3823H96.1783V17.1995H93.7196V2.74533H90.855Z" fill="#5C6666"/>
<path d="M98.47 2.74533V19.8612H110.155V17.2115H101.335V11.7807H108.174V9.15484H101.335V5.39507H110.155V2.74533H98.47Z" fill="#5C6666"/>
<path d="M124.323 2.74533V9.15484H115.765V2.74533H112.912V19.8612H115.765V11.8285H124.323V19.8612H127.199V2.74533H124.323Z" fill="#5C6666"/>
<path d="M129.598 2.7334V5.40701H135.387V19.8612H138.252V5.40701H144.065V2.7334H129.598Z" fill="#5C6666"/>
<path d="M149.328 9.9426V5.40701H154.115C154.89 5.40701 155.26 5.47862 155.606 5.62185C156.442 5.96799 157.039 6.69607 157.039 7.68674C157.039 8.68934 156.418 9.40549 155.606 9.73969C155.26 9.88292 154.878 9.9426 154.126 9.9426H149.328ZM149.328 19.8612V12.5923H154.473C155.797 12.5923 156.657 12.3536 157.397 11.9359C158.889 11.1242 159.856 9.56066 159.856 7.6748C159.856 5.74121 158.889 4.2015 157.409 3.4018C156.669 2.97211 155.797 2.74533 154.473 2.74533H146.476V19.8612H149.328Z" fill="#5C6666"/>
<path d="M92.9437 43.8044C92.9437 41.8588 91.9411 40.2236 90.4014 39.4001C89.6614 38.9704 88.7662 38.7317 87.4294 38.7317H82.4403V34.4348H91.3921V31.7731H79.5876V48.889H87.4294C88.7662 48.889 89.6614 48.6503 90.4134 48.2325C91.9411 47.397 92.9437 45.8096 92.9437 43.8044ZM90.115 43.8044C90.115 44.8666 89.4824 45.6544 88.6111 46.0125C88.2649 46.1676 87.871 46.2393 87.0833 46.2393H82.4403V41.3695H87.0952C87.8591 41.3695 88.253 41.4411 88.6111 41.5843C89.4704 41.9543 90.115 42.7301 90.115 43.8044Z" fill="#5C6666"/>
<path d="M107.434 48.889H110.43L103.555 31.7731H100.726L93.8389 48.889H96.8348L98.0642 45.7141H106.192L107.434 48.889ZM102.134 35.1987L105.19 43.1002H99.0668L102.134 35.1987Z" fill="#5C6666"/>
<path d="M127.629 37.6455C126.507 33.9454 123.213 31.7612 119.37 31.7612C114.428 31.7612 110.668 35.509 110.668 40.3311C110.668 45.2128 114.547 48.889 119.37 48.889C123.32 48.889 126.638 46.466 127.665 42.8853L124.944 42.0379C124.156 44.6399 122.091 46.2393 119.37 46.2393C115.956 46.2393 113.593 43.5895 113.593 40.3311C113.593 36.9652 115.992 34.4109 119.37 34.4109C122.091 34.4109 124.144 35.9984 124.92 38.5407L127.629 37.6455Z" fill="#5C6666"/>
<path d="M146.153 37.6455C145.031 33.9454 141.737 31.7612 137.894 31.7612C132.952 31.7612 129.193 35.509 129.193 40.3311C129.193 45.2128 133.072 48.889 137.894 48.889C141.845 48.889 145.163 46.466 146.189 42.8853L143.468 42.0379C142.68 44.6399 140.615 46.2393 137.894 46.2393C134.48 46.2393 132.117 43.5895 132.117 40.3311C132.117 36.9652 134.516 34.4109 137.894 34.4109C140.615 34.4109 142.668 35.9984 143.444 38.5407L146.153 37.6455Z" fill="#5C6666"/>
<path d="M148.552 31.7731V48.889H160.238V46.2393H151.417V40.8085H158.256V38.1826H151.417V34.4229H160.238V31.7731H148.552Z" fill="#5C6666"/>
<path d="M170.55 32.8235C171.744 31.4867 172.937 30.1379 174.143 28.8011C173.51 28.2163 172.854 27.6314 172.221 27.0346L168.628 31.0689L170.55 32.8235ZM174.895 48.889H177.759V31.7731H176.208C172.746 35.7477 169.297 39.7343 165.847 43.7089V31.7731H162.983V48.889H164.534L174.895 36.9413V48.889Z" fill="#5C6666"/>
<path d="M192.524 31.7731V38.1826H183.966V31.7731H181.113V48.889H183.966V40.8562H192.524V48.889H195.4V31.7731H192.524Z" fill="#5C6666"/>
<path d="M215.285 40.3311C215.285 35.509 211.573 31.7731 206.584 31.7731C201.595 31.7731 197.895 35.509 197.895 40.3311C197.895 45.1531 201.595 48.889 206.584 48.889C211.573 48.889 215.285 45.1531 215.285 40.3311ZM212.361 40.3311C212.361 43.6611 210.022 46.2154 206.584 46.2154C203.159 46.2154 200.807 43.6611 200.807 40.3311C200.807 37.001 203.159 34.4229 206.584 34.4229C210.022 34.4229 212.361 37.001 212.361 40.3311Z" fill="#5C6666"/>
<path d="M220.656 38.7794V34.3512H224.261C225.013 34.3512 225.383 34.4109 225.717 34.5541C226.529 34.9003 227.138 35.5926 227.138 36.5713C227.138 37.55 226.529 38.2423 225.717 38.5884C225.371 38.7197 225.001 38.7794 224.261 38.7794H220.656ZM220.656 46.2751V41.2382H225.264C226.111 41.2382 226.517 41.3098 226.887 41.465C227.818 41.835 228.486 42.6585 228.486 43.7447C228.486 44.8786 227.794 45.6783 226.887 46.0483C226.505 46.1915 226.099 46.2751 225.287 46.2751H220.656ZM217.804 48.889H225.789C227.102 48.889 227.925 48.6742 228.653 48.3041C230.253 47.4925 231.303 45.8693 231.303 43.8521C231.303 41.9066 230.169 40.3788 228.534 39.6149C229.381 38.8271 229.883 37.7768 229.883 36.6071C229.883 34.6258 228.844 33.086 227.293 32.3222C226.6 31.9641 225.801 31.7731 224.559 31.7731H217.804V48.889Z" fill="#5C6666"/>
<defs>
<linearGradient id="paint0_linear" x1="26.8123" y1="0" x2="26.8123" y2="55" gradientUnits="userSpaceOnUse">
<stop stop-color="#3D5C8A"/>
<stop offset="1" stop-color="#668EAD"/>
</linearGradient>
<linearGradient id="paint1_linear" x1="18.7956" y1="15.2026" x2="18.7956" y2="48.8812" gradientUnits="userSpaceOnUse">
<stop stop-color="#3D5C8A"/>
<stop offset="1" stop-color="#668EAD"/>
</linearGradient>
<linearGradient id="paint2_linear" x1="25.8203" y1="10.2378" x2="25.8203" y2="51.96" gradientUnits="userSpaceOnUse">
<stop stop-color="#3D5C8A"/>
<stop offset="1" stop-color="#668EAD"/>
</linearGradient>
<linearGradient id="paint3_linear" x1="18.7976" y1="32.8457" x2="18.7976" y2="41.9222" gradientUnits="userSpaceOnUse">
<stop stop-color="#3D5C8A"/>
<stop offset="1" stop-color="#668EAD"/>
</linearGradient>
</defs>
</svg>
